<?xml version="1.0" encoding="utf-8"?>
<!-- Generator: Adobe Illustrator 27.3.1, SVG Export Plug-In . SVG Version: 6.00 Build 0)  -->
<svg version="1.1" id="logo_epfl_2019" xmlns="http://www.w3.org/2000/svg" xmlns:xlink="http://www.w3.org/1999/xlink" x="0px"
	 y="0px" viewBox="0 0 182.4 53" style="enable-background:new 0 0 182.4 53;" xml:space="preserve">
<style type="text/css">
	.st0{fill:#FFFFFF;}
	.st1{display:none;fill:#FFFFFF;}
	.st2{fill:#FF0000;}
</style>
<rect x="-19.7" y="-84.4" class="st0" width="221.8" height="221.8"/>
<path class="st1" d="M78.9,15.7c0,1.1-0.3,2.1-0.9,3c-0.6,0.8-1.4,1.4-2.3,1.8c-1,0.4-2.1,0.7-3.3,0.9c-1.3,0.2-2.6,0.2-3.9,0.2h-9
	V9.8h9.1c1.3,0,2.6,0.1,3.9,0.2c1.1,0.1,2.2,0.4,3.3,0.9c0.9,0.4,1.7,1,2.2,1.8C78.6,13.6,78.9,14.6,78.9,15.7z"/>
<g>
	<polygon class="st2" points="0,21.6 11.4,21.6 11.4,9.8 38.3,9.8 38.3,0 0,0 	"/>
	<polygon class="st2" points="0,53 38.3,53 38.3,43.2 11.4,43.2 11.4,31.4 0,31.4 	"/>
	<rect x="11.4" y="21.6" class="st2" width="24.6" height="9.8"/>
	<path class="st2" d="M89.1,10c-0.6-2-1.7-3.7-3.1-5.1c-1.6-1.6-3.6-2.8-5.7-3.5c-2.7-1-5.6-1.4-8.5-1.3H48.1v53h11.4V31.4h12.2
		c2.9,0.1,5.7-0.4,8.5-1.3c2.1-0.8,4.1-2,5.7-3.5c1.4-1.4,2.5-3.1,3.2-5C90.4,17.8,90.4,13.7,89.1,10z M78,18.7
		c-0.6,0.8-1.4,1.4-2.3,1.8c-1,0.4-2.1,0.7-3.3,0.9c-1.3,0.2-2.6,0.2-3.9,0.2h-9V9.8h9.1c1.3,0,2.6,0.1,3.9,0.2
		c1.1,0.1,2.2,0.4,3.3,0.9c0.9,0.4,1.7,1,2.2,1.8c0.6,0.9,0.9,1.9,0.9,3C78.9,16.8,78.6,17.8,78,18.7z"/>
	<polygon class="st2" points="182.4,43.2 182.4,53 144,53 144,0 155.5,0 155.5,43.2 	"/>
	<polygon class="st2" points="135.8,0 135.8,9.8 108.8,9.8 108.8,21.5 97.4,21.5 97.4,0 	"/>
	<rect x="97.4" y="31.4" class="st2" width="11.4" height="21.6"/>
	<rect x="108.8" y="21.5" class="st2" width="24.6" height="9.8"/>
</g>
<rect x="38.3" class="st1" width="9.8" height="53"/>
<rect x="11.4" y="9.8" class="st1" width="26.9" height="11.8"/>
<rect x="36" y="21.6" class="st1" width="2.3" height="21.6"/>
<rect x="11.4" y="31.4" class="st1" width="24.6" height="11.8"/>
<rect y="21.6" class="st1" width="11.3" height="9.8"/>
<path class="st1" d="M108.8,21.6v9.8H97.4V53l-37.9,0.1V31.4h12.2c2.9,0.1,5.7-0.4,8.5-1.3c2.1-0.8,4.1-2,5.7-3.5
	c1.4-1.4,2.5-3.1,3.2-5c1.3-3.8,1.3-7.9,0-11.6c-0.6-2-1.7-3.7-3.1-5.1c-1.6-1.6-3.6-2.8-5.7-3.5c-2.7-1-5.6-1.4-8.5-1.3H48.1
	L97.4,0v21.6H108.8z"/>
<polygon class="st1" points="144,0 144,53 108.8,53 108.8,31.4 133.4,31.4 133.4,21.6 108.8,21.6 108.8,9.8 135.8,9.8 135.8,0 "/>
<rect x="155.5" class="st1" width="26.9" height="43.2"/>
</svg>
